<?xml version="1.0" encoding="utf-8"?>
<!-- Generator: Adobe Illustrator 15.1.0, SVG Export Plug-In  -->
<!DOCTYPE svg PUBLIC "-//W3C//DTD SVG 1.1//EN" "http://www.w3.org/Graphics/SVG/1.1/DTD/svg11.dtd" [
	<!ENTITY ns_flows "http://ns.adobe.com/Flows/1.0/">
]>
<svg version="1.1"
	 xmlns="http://www.w3.org/2000/svg" xmlns:xlink="http://www.w3.org/1999/xlink" xmlns:a="http://ns.adobe.com/AdobeSVGViewerExtensions/3.0/"
	 x="0px" y="0px" width="142px" height="58px" viewBox="-13.635 -5.311 142 58" enable-background="new -13.635 -5.311 142 58"
	 xml:space="preserve">
<defs>
</defs>
<path fill="#FFFFFF" d="M39.891,21.929h0.91v2.962h-0.91V21.929z M68.803,9.442v28.339c0,5.188-4.253,9.442-9.439,9.442h-28.34
	c-5.189,0-9.441-4.255-9.441-9.442V9.442C21.583,4.253,25.834,0,31.023,0h28.34C64.55,0,68.803,4.253,68.803,9.442L68.803,9.442z
	 M42.786,13.257c0-2.028-3.429-3.676-7.647-3.676c-4.231,0-7.655,1.648-7.655,3.676v24.386h1.294v-0.636h12.714v0.636h1.294V13.257z
	 M62.901,13.257c0-2.028-3.421-3.676-7.643-3.676c-4.232,0-7.655,1.648-7.655,3.676v24.386h1.291v-0.636h12.719v0.636h1.288V13.257z
	 M55.259,10.563c-4.151,0-6.687,1.564-6.687,2.695h13.362C61.935,12.127,59.399,10.563,55.259,10.563L55.259,10.563z M60.007,24.891
	h0.911v-2.962h-0.911V24.891z M35.139,10.563c-4.141,0-6.686,1.564-6.686,2.695h13.36C41.813,12.127,39.279,10.563,35.139,10.563
	L35.139,10.563z M35.139,10.563"/>
<text transform="matrix(1 0 0 1 70.9727 37.6309)" fill="#FFFFFF" font-family="'Bebas'" font-size="31.2331">PEE</text>
<text transform="matrix(1 0 0 1 0 37.6309)" fill="#FFFFFF" font-family="'Bebas'" font-size="31.2331">L</text>
</svg>
