<?xml version="1.0" encoding="utf-8"?>
<!-- Generator: Adobe Illustrator 15.1.0, SVG Export Plug-In  -->
<!DOCTYPE svg PUBLIC "-//W3C//DTD SVG 1.1//EN" "http://www.w3.org/Graphics/SVG/1.1/DTD/svg11.dtd" [
	<!ENTITY ns_flows "http://ns.adobe.com/Flows/1.0/">
]>
<svg version="1.1"
	 xmlns="http://www.w3.org/2000/svg" xmlns:xlink="http://www.w3.org/1999/xlink" xmlns:a="http://ns.adobe.com/AdobeSVGViewerExtensions/3.0/"
	 x="0px" y="0px" width="49px" height="21px" viewBox="-2 -0.792 49 21" enable-background="new -2 -0.792 49 21"
	 xml:space="preserve">
<defs>
</defs>
<path fill="#FFFFFF" d="M14.062,9.006h0.374v1.217h-0.374V9.006z M25.937,3.878v11.639c0,2.131-1.747,3.878-3.877,3.878H10.42
	c-2.131,0-3.877-1.747-3.877-3.878V3.878C6.543,1.747,8.289,0,10.42,0H22.06C24.189,0,25.937,1.747,25.937,3.878L25.937,3.878z
	 M15.251,5.445c0-0.833-1.408-1.51-3.14-1.51c-1.738,0-3.144,0.677-3.144,1.51V15.46h0.531v-0.261h5.222v0.261h0.531V5.445z
	 M23.513,5.445c0-0.833-1.405-1.51-3.139-1.51c-1.738,0-3.144,0.677-3.144,1.51V15.46h0.53v-0.261h5.224v0.261h0.529V5.445z
	 M20.374,4.338c-1.705,0-2.747,0.643-2.747,1.107h5.488C23.115,4.98,22.074,4.338,20.374,4.338L20.374,4.338z M22.324,10.223h0.374
	V9.006h-0.374V10.223z M12.111,4.338c-1.701,0-2.746,0.643-2.746,1.107h5.487C14.852,4.98,13.811,4.338,12.111,4.338L12.111,4.338z
	 M12.111,4.338"/>
<text transform="matrix(1 0 0 1 26.8271 15.4551)" fill="#FFFFFF" font-family="'Bebas'" font-size="12.8274">PEE</text>
<text transform="matrix(1 0 0 1 0 15.4551)" fill="#FFFFFF" font-family="'Bebas'" font-size="12.8274">L</text>
</svg>
